# xmcd CD database file
#
# Track frame offsets:
#	150
#	12838
#	31067
#	51484
#	67287
#	87906
#	105332
#	123237
#	146507
#	178781
#	203263
#	224236
#	241518
#	257147
#
# Disc length: 3664 seconds
#
# Revision: 3
# Processed by: cddbd v1.5.2PL0 Copyright (c) Steve Scherf et al.
# Submitted via: CDex 2.12
#
DISCID=c20e4e0e
DTITLE=Lupe Fiasco - Drogas Light
DYEAR=2017
DGENRE=Hip-Hop
TTITLE0=Dopamine Lit (Intro)
TTITLE1=NGL (Feat. Ty Dolla $ign)
TTITLE2=Promise
TTITLE3=Made In The USA (Feat. Bianca Sings)
TTITLE4=Jump (Feat. Gizzle)
TTITLE5=City Of The Year (Feat. Rondo)
TTITLE6=High (Interlude) (Feat. Simon Sayz)
TTITLE7=Tranquillo (Feat. Rick Ross and Big K.R.I.T.)
TTITLE8=Kill (Feat. Ty Dolla $ign and Victoria Monet)
TTITLE9=Law (Feat. Simon Sayz)
TTITLE10=Pick Up The Phone
TTITLE11=It's Not Design (Feat. Salim)
TTITLE12=Wild Child (Feat. Jake Torrey)
TTITLE13=More Than My Heart (Feat. Rxmn and Salim)
EXTD=YEAR: 2017
EXTT0=
EXTT1=
EXTT2=
EXTT3=
EXTT4=
EXTT5=
EXTT6=
EXTT7=
EXTT8=
EXTT9=
EXTT10=
EXTT11=
EXTT12=
EXTT13=
PLAYORDER=
